<svg width="25" height="51" viewBox="0 0 25 51" fill="none" xmlns="http://www.w3.org/2000/svg">
<path d="M22.4271 9.83661C22.4271 15.2692 18.046 19.6732 12.6418 19.6732C7.23748 19.6732 2.85645 15.2692 2.85645 9.83661C2.85645 4.404 7.23748 0 12.6418 0C18.046 0 22.4271 4.404 22.4271 9.83661Z" fill="#97B7E7"/>
<path d="M25 34.3659C25 42.6992 19.1278 49.1832 12.6426 49.1832C6.1575 49.1832 0 41.9417 0 34.3659C0 26.2169 6.1575 19.6733 12.6426 19.6733C19.1278 19.6733 25 26.2169 25 34.3659Z" fill="#97B7E7"/>
<path d="M22.4258 41.3139C21.4473 43.2812 18.5117 49.1832 12.6414 50.1669C6.76966 49.1833 3.8337 43.2815 2.85527 41.3139C-0.0796397 35.4116 1.87719 20.6571 12.6414 24.5917C23.4044 20.657 25.3614 35.4118 22.4258 41.3139Z" fill="black"/>
<path d="M11.1225 25.8645C11.0983 25.7127 11.2156 25.5752 11.3694 25.5752H13.9298C14.0783 25.5752 14.1941 25.7039 14.1784 25.8516L13.8139 29.2862C13.8004 29.4134 13.6932 29.5098 13.5653 29.5098H11.916C11.7931 29.5098 11.6885 29.4205 11.6691 29.2991L11.1225 25.8645Z" fill="#FF4242"/>
<path d="M12.4287 40.6707C12.5087 40.8897 12.8185 40.8897 12.8984 40.6707L14.1336 37.2877C14.1461 37.2534 14.151 37.2168 14.1478 37.1805L13.6035 30.8656C13.5924 30.7363 13.4842 30.6371 13.3545 30.6371H11.9727C11.8429 30.6371 11.7348 30.7363 11.7236 30.8656L11.1793 37.1805C11.1762 37.2168 11.181 37.2534 11.1936 37.2877L12.4287 40.6707Z" fill="#FF4242"/>
</svg>
